<svg width="94" height="56" viewBox="0 0 94 56" fill="none" xmlns="http://www.w3.org/2000/svg">
<path d="M47.8223 48.5708C47.0182 48.3397 46.4323 48.0565 46.0645 47.7212C45.6999 47.3827 45.5176 46.966 45.5176 46.4712C45.5176 45.9113 45.7406 45.4491 46.1865 45.0845C46.6357 44.7166 47.2184 44.5327 47.9346 44.5327C48.4229 44.5327 48.8574 44.6271 49.2383 44.8159C49.6224 45.0047 49.9186 45.2652 50.127 45.5972C50.3385 45.9292 50.4443 46.2922 50.4443 46.6861H49.502C49.502 46.2564 49.3652 45.9194 49.0918 45.6753C48.8184 45.4279 48.4326 45.3042 47.9346 45.3042C47.4723 45.3042 47.111 45.4068 46.8506 45.6118C46.5934 45.8137 46.4648 46.0952 46.4648 46.4566C46.4648 46.7463 46.5869 46.992 46.8311 47.1939C47.0785 47.3924 47.4967 47.5747 48.0859 47.7407C48.6784 47.9068 49.1406 48.0907 49.4727 48.2925C49.8079 48.4911 50.0553 48.7238 50.2148 48.9907C50.3776 49.2577 50.459 49.5718 50.459 49.9331C50.459 50.5093 50.2344 50.9715 49.7852 51.3198C49.3359 51.6649 48.7354 51.8374 47.9834 51.8374C47.4951 51.8374 47.0394 51.7446 46.6162 51.5591C46.193 51.3703 45.8659 51.1131 45.6348 50.7876C45.4069 50.4621 45.293 50.0926 45.293 49.6792H46.2354C46.2354 50.1089 46.3932 50.4491 46.709 50.6997C47.028 50.9471 47.4528 51.0708 47.9834 51.0708C48.4782 51.0708 48.8574 50.9699 49.1211 50.7681C49.3848 50.5663 49.5166 50.2912 49.5166 49.9429C49.5166 49.5946 49.3945 49.326 49.1504 49.1372C48.9062 48.9452 48.4635 48.7564 47.8223 48.5708ZM56.5771 45.4019H54.292V51.7398H53.3594V45.4019H51.0791V44.6304H56.5771V45.4019ZM62.9639 48.4146C62.9639 49.1112 62.8467 49.7199 62.6123 50.2407C62.3779 50.7583 62.0459 51.1538 61.6162 51.4273C61.1865 51.7007 60.6852 51.8374 60.1123 51.8374C59.5524 51.8374 59.056 51.7007 58.623 51.4273C58.1901 51.1506 57.8532 50.7583 57.6123 50.2505C57.3747 49.7394 57.2526 49.1486 57.2461 48.478V47.9653C57.2461 47.2818 57.3649 46.6779 57.6025 46.1538C57.8402 45.6297 58.1755 45.2293 58.6084 44.9527C59.0446 44.6727 59.5426 44.5327 60.1025 44.5327C60.6722 44.5327 61.1735 44.6711 61.6064 44.9478C62.0426 45.2212 62.3779 45.62 62.6123 46.1441C62.8467 46.6649 62.9639 47.272 62.9639 47.9653V48.4146ZM62.0312 47.9556C62.0312 47.1125 61.862 46.4663 61.5234 46.0171C61.1849 45.5646 60.7113 45.3384 60.1025 45.3384C59.5101 45.3384 59.043 45.5646 58.7012 46.0171C58.3626 46.4663 58.1885 47.0913 58.1787 47.8921V48.4146C58.1787 49.2316 58.3496 49.8745 58.6914 50.3433C59.0365 50.8088 59.5101 51.0415 60.1123 51.0415C60.7178 51.0415 61.1865 50.8218 61.5186 50.3823C61.8506 49.9396 62.0215 49.3065 62.0312 48.4829V47.9556ZM66.9775 48.8638H65.3076V51.7398H64.3652V44.6304H66.7188C67.5195 44.6304 68.1348 44.8127 68.5645 45.1773C68.9974 45.5418 69.2139 46.0724 69.2139 46.7691C69.2139 47.2118 69.0934 47.5975 68.8525 47.9263C68.6149 48.2551 68.2829 48.5008 67.8564 48.6636L69.5264 51.6812V51.7398H68.5205L66.9775 48.8638ZM65.3076 48.0972H66.748C67.2135 48.0972 67.583 47.9767 67.8564 47.7359C68.1331 47.495 68.2715 47.1727 68.2715 46.7691C68.2715 46.3296 68.1396 45.9927 67.876 45.7583C67.6156 45.5239 67.238 45.4051 66.7432 45.4019H65.3076V48.0972ZM74.458 49.8843H71.4795L70.8105 51.7398H69.8438L72.5586 44.6304H73.3789L76.0986 51.7398H75.1367L74.458 49.8843ZM71.7627 49.1128H74.1797L72.9688 45.7876L71.7627 49.1128ZM82.2461 50.8071C82.0052 51.1522 81.6683 51.411 81.2354 51.5835C80.8057 51.7528 80.3044 51.8374 79.7314 51.8374C79.152 51.8374 78.6377 51.7023 78.1885 51.4321C77.7393 51.1587 77.391 50.7713 77.1436 50.27C76.8994 49.7687 76.7741 49.1877 76.7676 48.5269V47.9068C76.7676 46.8358 77.0166 46.0057 77.5146 45.4165C78.016 44.8273 78.7191 44.5327 79.624 44.5327C80.3662 44.5327 80.9635 44.7232 81.416 45.104C81.8685 45.4816 82.1452 46.0187 82.2461 46.7153H81.3086C81.1328 45.7746 80.5729 45.3042 79.6289 45.3042C79.0007 45.3042 78.5238 45.5256 78.1982 45.9683C77.876 46.4077 77.7132 47.0458 77.71 47.8823V48.4634C77.71 49.2609 77.8923 49.8957 78.2568 50.3677C78.6214 50.8364 79.1146 51.0708 79.7363 51.0708C80.0879 51.0708 80.3955 51.0318 80.6592 50.9536C80.9229 50.8755 81.141 50.7437 81.3135 50.5581V48.9614H79.668V48.1997H82.2461V50.8071ZM87.832 48.4536H84.751V50.9732H88.3301V51.7398H83.8135V44.6304H88.2812V45.4019H84.751V47.687H87.832V48.4536Z" fill="#149DD9"/>
<path d="M13.4563 30.5443H10.865C10.7286 30.5443 10.6377 30.4528 10.6377 30.3156V21.6279C10.6377 21.4907 10.7286 21.3993 10.865 21.3993H13.4563C13.5926 21.3993 13.6836 21.4907 13.6836 21.6279V30.3156C13.6836 30.4071 13.5926 30.5443 13.4563 30.5443Z" fill="#149DD9"/>
<path d="M18.7296 36.6714H16.2293C16.0929 36.6714 16.002 36.58 16.002 36.4428V24.0056C16.002 23.8684 16.0929 23.777 16.2293 23.777H18.7296C18.866 23.777 18.9569 23.8684 18.9569 24.0056V36.4428C18.9569 36.58 18.866 36.6714 18.7296 36.6714Z" fill="#149DD9"/>
<path d="M8.1374 24.4628H5.54615C5.40977 24.4628 5.31885 24.3714 5.31885 24.2342V21.6279C5.31885 21.4907 5.40977 21.3993 5.54615 21.3993H8.1374C8.27379 21.3993 8.36471 21.4907 8.36471 21.6279V24.2342C8.41017 24.3257 8.27379 24.4628 8.1374 24.4628Z" fill="#149DD9"/>
<path d="M2.81856 24.4628H0.227303C0.0909212 24.4628 0 24.3714 0 24.2342V21.6279C0 21.4907 0.0909212 21.3993 0.227303 21.3993H2.81856C2.95494 21.3993 3.04586 21.4907 3.04586 21.6279V24.2342C3.09132 24.3257 2.95494 24.4628 2.81856 24.4628Z" fill="#149DD9"/>
<path d="M30.368 26.2461V28.8524C30.368 28.9896 30.2771 29.0811 30.1407 29.0811H21.5032C21.3668 29.0811 21.2759 28.9896 21.2759 28.8524V26.2461C21.2759 26.109 21.3668 26.0175 21.5032 26.0175H30.1407C30.2771 26.0175 30.368 26.109 30.368 26.2461Z" fill="#149DD9"/>
<path d="M36.4595 20.9878V23.5026C36.4595 23.6398 36.3686 23.7313 36.2322 23.7313H23.867C23.7306 23.7313 23.6396 23.6398 23.6396 23.5026V20.9878C23.6396 20.8506 23.7306 20.7591 23.867 20.7591H36.2322C36.3686 20.7134 36.4595 20.8049 36.4595 20.9878Z" fill="#149DD9"/>
<path d="M24.3217 31.5959V34.2023C24.3217 34.3394 24.2308 34.4309 24.0944 34.4309H21.5032C21.3668 34.4309 21.2759 34.3394 21.2759 34.2023V31.5959C21.2759 31.4588 21.3668 31.3673 21.5032 31.3673H24.0944C24.1854 31.3673 24.3217 31.4588 24.3217 31.5959Z" fill="#149DD9"/>
<path d="M24.3217 36.9458V39.5521C24.3217 39.6893 24.2308 39.7807 24.0944 39.7807H21.5032C21.3668 39.7807 21.2759 39.6893 21.2759 39.5521V36.9458C21.2759 36.8086 21.3668 36.7171 21.5032 36.7171H24.0944C24.1854 36.6714 24.3217 36.8086 24.3217 36.9458Z" fill="#149DD9"/>
<path d="M26.14 9.23645H28.7313C28.8677 9.23645 28.9586 9.3279 28.9586 9.46507V18.1528C28.9586 18.29 28.8677 18.3814 28.7313 18.3814H26.14C26.0036 18.3814 25.9127 18.29 25.9127 18.1528V9.46507C25.8673 9.37363 26.0036 9.23645 26.14 9.23645Z" fill="#149DD9"/>
<path d="M20.8666 3.1093H23.3669C23.5033 3.1093 23.5942 3.20075 23.5942 3.33792V15.7751C23.5942 15.9123 23.5033 16.0037 23.3669 16.0037H20.8666C20.7302 16.0037 20.6393 15.9123 20.6393 15.7751V3.33792C20.5938 3.20075 20.7302 3.1093 20.8666 3.1093Z" fill="#149DD9"/>
<path d="M31.4133 15.3179H34.0046C34.141 15.3179 34.2319 15.4093 34.2319 15.5465V18.1528C34.2319 18.29 34.141 18.3814 34.0046 18.3814H31.4133C31.277 18.3814 31.186 18.29 31.186 18.1528V15.5465C31.186 15.455 31.277 15.3179 31.4133 15.3179Z" fill="#149DD9"/>
<path d="M36.7327 15.3179H39.3239C39.4603 15.3179 39.5512 15.4093 39.5512 15.5465V18.1528C39.5512 18.29 39.4603 18.3814 39.3239 18.3814H36.7327C36.5963 18.3814 36.5054 18.29 36.5054 18.1528V15.5465C36.5054 15.455 36.5963 15.3179 36.7327 15.3179Z" fill="#149DD9"/>
<path d="M9.22852 13.5346V10.9283C9.22852 10.7911 9.31944 10.6996 9.45582 10.6996H18.0933C18.2297 10.6996 18.3206 10.7911 18.3206 10.9283V13.5346C18.3206 13.6718 18.2297 13.7632 18.0933 13.7632H9.45582C9.31944 13.7632 9.22852 13.6718 9.22852 13.5346Z" fill="#149DD9"/>
<path d="M3.09131 18.8387V16.3238C3.09131 16.1866 3.18223 16.0952 3.31861 16.0952H15.6839C15.8203 16.0952 15.9112 16.1866 15.9112 16.3238V18.8387C15.9112 18.9759 15.8203 19.0673 15.6839 19.0673H3.36407C3.22769 19.0673 3.09131 18.9759 3.09131 18.8387Z" fill="#149DD9"/>
<path d="M15.2749 8.18477V5.57845C15.2749 5.44127 15.3658 5.34982 15.5022 5.34982H18.0935C18.2298 5.34982 18.3208 5.44127 18.3208 5.57845V8.18477C18.3208 8.32194 18.2298 8.41339 18.0935 8.41339H15.5022C15.3658 8.45912 15.2749 8.32194 15.2749 8.18477Z" fill="#149DD9"/>
<path d="M15.2749 2.83495V0.228625C15.2749 0.0914499 15.3658 0 15.5022 0H18.0935C18.2298 0 18.3208 0.0914499 18.3208 0.228625V2.83495C18.3208 2.97212 18.2298 3.06357 18.0935 3.06357H15.5022C15.3658 3.1093 15.2749 2.97212 15.2749 2.83495Z" fill="#149DD9"/>
<path d="M63.0083 15.7294V39.5521C63.0083 39.6893 63.0992 39.7807 63.2356 39.7807H68.7818C68.9182 39.7807 69.0091 39.6893 69.0091 39.5521V15.7294C69.0091 15.5922 68.9182 15.5008 68.7818 15.5008H63.2356C63.1447 15.455 63.0083 15.5922 63.0083 15.7294Z" fill="white"/>
<path d="M86.6481 15.8208H80.4655V13.3974C80.4655 11.4312 81.5565 10.3338 83.5568 10.3338H86.6027C86.7391 10.3338 86.83 10.2424 86.83 10.1052V5.25836C86.83 5.12119 86.7391 5.02974 86.6027 5.02974H82.193C77.3742 5.02974 74.6465 8.45911 74.6465 13.2145L74.6011 39.5521C74.6011 39.6893 74.692 39.7807 74.8284 39.7807H80.3746C80.511 39.7807 80.6019 39.6893 80.6019 39.5521V21.0335H86.6027C86.7391 21.0335 86.83 20.942 86.83 20.8048V16.0952C86.9209 15.9123 86.7845 15.8208 86.6481 15.8208Z" fill="white"/>
<path d="M51.6886 23.6855C51.6886 21.7194 52.7797 20.622 54.7799 20.622H57.8713C58.0077 20.622 58.0986 20.5305 58.0986 20.3933V15.5922C58.0986 15.455 58.0077 15.3636 57.8713 15.3636H53.4161C48.5973 15.3636 45.8697 18.793 45.8697 23.5484L45.8242 39.5521C45.8242 39.6893 45.9151 39.7807 46.0515 39.7807H51.5977C51.7341 39.7807 51.825 39.6893 51.825 39.5521L51.6886 23.6855Z" fill="white"/>
<path d="M68.8272 11.2941H63.281C63.1446 11.2941 63.0537 11.2026 63.0537 11.0654V5.44126C63.0537 5.30408 63.1446 5.21263 63.281 5.21263H68.8272C68.9636 5.21263 69.0545 5.30408 69.0545 5.44126V11.0197C69.0545 11.1569 68.9636 11.2941 68.8272 11.2941Z" fill="white"/>
</svg>
